<?xml version="1.0" encoding="utf-8"?>
<svg version="1.1" preserveAspectRatio="none" x="0px" y="0px" width="319px" height="66px" viewBox="0 0 319 66" xmlns="http://www.w3.org/2000/svg">
  <defs>
    <linearGradient id="Gradient_1" gradientUnits="userSpaceOnUse" x1="853.9250000000001" y1="488.8" x2="1587.875" y2="488.8" spreadMethod="pad">
      <stop offset="0" stop-color="#10A7FF"/>
      <stop offset="1" stop-color="#4066D2"/>
    </linearGradient>
    <g id="Layer0_0_FILL">
      <path fill="url(#Gradient_1)" stroke="none" d=" M 893 455.8 L 874.3 521.8 1174.3 521.8 1193 455.8 893 455.8 Z"/>
    </g>
    <g id="Layer0_2_FILL">
      <path fill="#FFFFFF" fill-opacity="0.8" stroke="none" d=" M 115.6 31.45 Q 115.95 29.2 115.95 26.8 L 115.95 25.75 103.85 25.75 103.85 28.3 113.1 28.3 Q 113.05 29.45 112.8 31.2 L 115.6 31.45 M 117.95 34.6 L 117.95 32.15 110.5 32.15 110.5 29.6 107.7 29.6 107.7 32.15 102 32.15 102 34.6 117.95 34.6 M 115.2 36.65 Q 114.05 35.7 112.05 35.7 L 107.9 35.7 Q 105.95 35.7 104.75 36.65 103.6 37.55 103.6 39.05 103.6 40.5 104.75 41.45 105.95 42.4 107.9 42.4 L 112.05 42.4 Q 114 42.4 115.2 41.45 116.4 40.5 116.4 39.05 116.4 37.55 115.2 36.65 M 108.5 40 Q 106.4 40 106.4 39 106.4 38.05 108.5 38.05 L 111.5 38.05 Q 113.6 38.05 113.6 39 113.6 40 111.5 40 L 108.5 40 M 131.1 38.1 L 131.1 42.4 133.9 42.4 133.9 35.55 121.9 35.55 121.9 38.1 131.1 38.1 M 123.2 26.9 Q 123.2 28.5 122.3 29.85 121.35 31.25 119.15 32.55 L 120.7 34.85 Q 123.2 33.4 124.4 31.8 L 128.45 34.45 130 32.2 125.7 29.4 Q 126.05 28.25 126.05 26.9 L 126.05 25.75 123.2 25.75 123.2 26.9 M 133.9 34.75 L 133.9 25.3 131.1 25.3 131.1 34.75 133.9 34.75 M 141.3 34.15 L 141.7 34.15 Q 143.55 34.15 145.8 33.95 144.05 36.45 140.9 38.35 L 142.55 40.6 Q 147.05 37.8 149 34.1 L 152.65 34.1 152.65 42.2 155.45 42.2 155.45 25.3 152.65 25.3 152.65 31.5 149.95 31.5 Q 150.35 29.95 150.35 28.3 L 150.35 26.45 141.5 26.45 141.5 29.05 147.5 29.05 Q 147.5 30.15 147.1 31.4 144.25 31.6 141.45 31.6 L 141.15 31.6 141.3 34.15 M 189.55 25.3 L 186.75 25.3 186.75 42.2 189.55 42.2 189.55 25.3 M 195.3 34.3 L 201.2 34.3 201.2 31.85 195.3 31.85 195.3 28.9 201.35 28.9 201.35 26.4 192.45 26.4 192.45 39.95 196.3 39.95 Q 199.75 39.95 202.65 39.4 L 202.35 37 Q 199.45 37.45 196.8 37.45 L 195.3 37.45 195.3 34.3 M 164.05 42.4 L 164.05 38 167.2 38 167.2 42.4 170 42.4 170 38 173.6 38 173.6 35.45 157.65 35.45 157.65 38 161.25 38 161.25 42.4 164.05 42.4 M 171.85 33.65 L 171.85 25.9 159.4 25.9 159.4 33.65 171.85 33.65 M 162.2 31.2 L 162.2 28.35 169.05 28.35 169.05 31.2 162.2 31.2 M 179.65 37.05 L 178.45 37.05 178.45 26.4 175.6 26.4 175.6 39.6 179.15 39.6 Q 182.35 39.6 185.6 39.05 L 185.3 36.55 Q 182.25 37.05 179.65 37.05 M 203.8 42.2 L 206.6 42.2 206.6 25.3 203.8 25.3 203.8 42.2 Z"/>
    </g>
    <path id="Layer0_1_1_STROKES" stroke="#FFFFFF" stroke-width="2" stroke-linejoin="round" stroke-linecap="round" fill="none" d=" M 939.95 551.9 L 953.95 551.9 946.95 544.9 M 953.95 551.9 L 946.95 558.9"/>
  </defs>
  <g transform="matrix(1, 0, 0, 1, -874.349976, -455.799988)">
    <g transform="matrix(1, 0, 0, 1, 0, 0)">
      <path stroke="none" d=" M 893 455.8 L 874.3 521.8 1174.3 521.8 1193 455.8 893 455.8 Z" style="fill: rgb(203, 86, 255);"/>
    </g>
  </g>
  <g transform="matrix( 1, 0, 0, 1, -684.35,-518.8) ">
    <path stroke="#FFFFFF" stroke-width="2" stroke-linejoin="round" stroke-linecap="round" fill="none" d=" M 939.95 551.9 L 953.95 551.9 946.95 544.9 M 953.95 551.9 L 946.95 558.9" transform="matrix(1, 0, 0, 1, 0, 0)"/>
  </g>
  <g transform="matrix( 1, 0, 0, 1, 0,0) ">
    <g transform="matrix(1, 0, 0, 1, 0, 0)">
      <path fill="#FFFFFF" fill-opacity="0.8" stroke="none" d=" M 115.6 31.45 Q 115.95 29.2 115.95 26.8 L 115.95 25.75 103.85 25.75 103.85 28.3 113.1 28.3 Q 113.05 29.45 112.8 31.2 L 115.6 31.45 M 117.95 34.6 L 117.95 32.15 110.5 32.15 110.5 29.6 107.7 29.6 107.7 32.15 102 32.15 102 34.6 117.95 34.6 M 115.2 36.65 Q 114.05 35.7 112.05 35.7 L 107.9 35.7 Q 105.95 35.7 104.75 36.65 103.6 37.55 103.6 39.05 103.6 40.5 104.75 41.45 105.95 42.4 107.9 42.4 L 112.05 42.4 Q 114 42.4 115.2 41.45 116.4 40.5 116.4 39.05 116.4 37.55 115.2 36.65 M 108.5 40 Q 106.4 40 106.4 39 106.4 38.05 108.5 38.05 L 111.5 38.05 Q 113.6 38.05 113.6 39 113.6 40 111.5 40 L 108.5 40 M 131.1 38.1 L 131.1 42.4 133.9 42.4 133.9 35.55 121.9 35.55 121.9 38.1 131.1 38.1 M 123.2 26.9 Q 123.2 28.5 122.3 29.85 121.35 31.25 119.15 32.55 L 120.7 34.85 Q 123.2 33.4 124.4 31.8 L 128.45 34.45 130 32.2 125.7 29.4 Q 126.05 28.25 126.05 26.9 L 126.05 25.75 123.2 25.75 123.2 26.9 M 133.9 34.75 L 133.9 25.3 131.1 25.3 131.1 34.75 133.9 34.75 M 141.3 34.15 L 141.7 34.15 Q 143.55 34.15 145.8 33.95 144.05 36.45 140.9 38.35 L 142.55 40.6 Q 147.05 37.8 149 34.1 L 152.65 34.1 152.65 42.2 155.45 42.2 155.45 25.3 152.65 25.3 152.65 31.5 149.95 31.5 Q 150.35 29.95 150.35 28.3 L 150.35 26.45 141.5 26.45 141.5 29.05 147.5 29.05 Q 147.5 30.15 147.1 31.4 144.25 31.6 141.45 31.6 L 141.15 31.6 141.3 34.15 M 189.55 25.3 L 186.75 25.3 186.75 42.2 189.55 42.2 189.55 25.3 M 195.3 34.3 L 201.2 34.3 201.2 31.85 195.3 31.85 195.3 28.9 201.35 28.9 201.35 26.4 192.45 26.4 192.45 39.95 196.3 39.95 Q 199.75 39.95 202.65 39.4 L 202.35 37 Q 199.45 37.45 196.8 37.45 L 195.3 37.45 195.3 34.3 M 164.05 42.4 L 164.05 38 167.2 38 167.2 42.4 170 42.4 170 38 173.6 38 173.6 35.45 157.65 35.45 157.65 38 161.25 38 161.25 42.4 164.05 42.4 M 171.85 33.65 L 171.85 25.9 159.4 25.9 159.4 33.65 171.85 33.65 M 162.2 31.2 L 162.2 28.35 169.05 28.35 169.05 31.2 162.2 31.2 M 179.65 37.05 L 178.45 37.05 178.45 26.4 175.6 26.4 175.6 39.6 179.15 39.6 Q 182.35 39.6 185.6 39.05 L 185.3 36.55 Q 182.25 37.05 179.65 37.05 M 203.8 42.2 L 206.6 42.2 206.6 25.3 203.8 25.3 203.8 42.2 Z"/>
    </g>
  </g>
</svg>